<svg xmlns="http://www.w3.org/2000/svg" xmlns:xlink="http://www.w3.org/1999/xlink" contentStyleType="text/css" data-diagram-type="CLASS" height="357px" preserveAspectRatio="none" style="width:399px;height:357px;background:#FFFFFF;" version="1.1" viewBox="0 0 399 357" width="399px" zoomAndPan="magnify"><defs/><g><!--cluster trig--><g id="cluster_trig"><path d="M235,248.61 L260.8079,248.61 A3.75,3.75 0 0 1 263.3079,251.11 L270.3079,273.6779 L390,273.6779 A2.5,2.5 0 0 1 392.5,276.1779 L392.5,348.11 A2.5,2.5 0 0 1 390,350.61 L235,350.61 A2.5,2.5 0 0 1 232.5,348.11 L232.5,251.11 A2.5,2.5 0 0 1 235,248.61 " fill="#FFFFFF" fill-opacity="0.00000" style="stroke:#000000;stroke-width:1.5;"/><line style="stroke:#000000;stroke-width:1.5;" x1="232.5" x2="270.3079" y1="273.6779" y2="273.6779"/><text fill="#000000" font-family="sans-serif" font-size="14" font-weight="bold" lengthAdjust="spacing" textLength="24.8079" x="236.5" y="265.5759">trig</text></g><!--class UnitNegRange--><g id="elem_UnitNegRange"><rect fill="#F1F1F1" height="48" id="UnitNegRange" rx="2.5" ry="2.5" style="stroke:#181818;stroke-width:0.5;" width="128.4176" x="248.29" y="286.61"/><ellipse cx="263.29" cy="302.61" fill="#ADD1B2" rx="11" ry="11" style="stroke:#181818;stroke-width:1;"/><path d="M263.3994,298.1413 Q262.4775,298.1413 261.7431,298.4538 Q261.0244,298.7663 260.5244,299.36 Q260.0244,299.9381 259.7431,300.8131 Q259.4775,301.6881 259.4775,302.7819 Q259.4775,304.2194 259.915,305.2663 Q260.3681,306.3131 261.2119,306.86 Q262.0712,307.4069 263.3837,307.4069 Q264.165,307.4069 264.8525,307.2819 Q265.5556,307.1413 266.5556,306.8288 L266.5556,308.7038 Q265.6962,309.0319 264.9306,309.1569 Q264.1806,309.2819 263.165,309.2819 Q261.2431,309.2819 259.9306,308.485 Q258.6337,307.6725 257.9775,306.2038 Q257.3212,304.7194 257.3212,302.7506 Q257.3212,301.3288 257.7119,300.1569 Q258.1181,298.9694 258.8994,298.0944 Q259.6806,297.2194 260.8212,296.7506 Q261.9619,296.2663 263.4306,296.2663 Q264.3837,296.2663 265.2744,296.4694 Q266.1806,296.6569 267.1181,297.1256 L266.29,298.9069 Q265.5087,298.5319 264.8525,298.3444 Q264.1962,298.1413 263.3994,298.1413 Z " fill="#000000"/><text fill="#000000" font-family="sans-serif" font-size="14" lengthAdjust="spacing" textLength="96.4176" x="277.29" y="308.042">UnitNegRange</text><line style="stroke:#181818;stroke-width:0.5;" x1="249.29" x2="375.7076" y1="318.61" y2="318.61"/><line style="stroke:#181818;stroke-width:0.5;" x1="249.29" x2="375.7076" y1="326.61" y2="326.61"/></g><!--class Angle--><g id="elem_Angle"><rect codeLine="8" fill="#F1F1F1" height="219.6113" id="Angle" rx="2.5" ry="2.5" style="stroke:#181818;stroke-width:0.5;" width="140.6456" x="101.18" y="7"/><ellipse cx="148.3949" cy="23" fill="#ADD1B2" rx="11" ry="11" style="stroke:#181818;stroke-width:1;"/><path d="M148.5042,18.5313 Q147.5824,18.5313 146.848,18.8438 Q146.1292,19.1563 145.6292,19.75 Q145.1292,20.3281 144.848,21.2031 Q144.5824,22.0781 144.5824,23.1719 Q144.5824,24.6094 145.0199,25.6563 Q145.473,26.7031 146.3167,27.25 Q147.1761,27.7969 148.4886,27.7969 Q149.2699,27.7969 149.9574,27.6719 Q150.6605,27.5313 151.6605,27.2188 L151.6605,29.0938 Q150.8011,29.4219 150.0355,29.5469 Q149.2855,29.6719 148.2699,29.6719 Q146.348,29.6719 145.0355,28.875 Q143.7386,28.0625 143.0824,26.5938 Q142.4261,25.1094 142.4261,23.1406 Q142.4261,21.7188 142.8167,20.5469 Q143.223,19.3594 144.0042,18.4844 Q144.7855,17.6094 145.9261,17.1406 Q147.0667,16.6563 148.5355,16.6563 Q149.4886,16.6563 150.3792,16.8594 Q151.2855,17.0469 152.223,17.5156 L151.3949,19.2969 Q150.6136,18.9219 149.9574,18.7344 Q149.3011,18.5313 148.5042,18.5313 Z " fill="#000000"/><text fill="#000000" font-family="sans-serif" font-size="14" lengthAdjust="spacing" textLength="37.7159" x="168.8949" y="28.432">Angle</text><line style="stroke:#181818;stroke-width:0.5;" x1="102.18" x2="240.8256" y1="39" y2="39"/><rect fill="#FFFFFF" fill-opacity="0.00000" height="6" style="stroke:#C82930;stroke-width:1;" width="6" x="109.18" y="51.034"/><text fill="#000000" font-family="sans-serif" font-size="14" lengthAdjust="spacing" textLength="18.9699" x="121.18" y="57.9659">sin</text><rect fill="#FFFFFF" fill-opacity="0.00000" height="6" style="stroke:#C82930;stroke-width:1;" width="6" x="109.18" y="70.1019"/><text fill="#000000" font-family="sans-serif" font-size="14" lengthAdjust="spacing" textLength="21.8959" x="121.18" y="77.0339">cos</text><line style="stroke:#181818;stroke-width:1;" x1="102.18" x2="240.8256" y1="85.1358" y2="85.1358"/><ellipse cx="112.18" cy="100.1698" fill="#FFFFFF" fill-opacity="0.00000" rx="3" ry="3" style="stroke:#038048;stroke-width:1;"/><text fill="#000000" font-family="sans-serif" font-size="14" lengthAdjust="spacing" textLength="23.1699" x="121.18" y="104.1018">abs</text><ellipse cx="112.18" cy="119.2377" fill="#FFFFFF" fill-opacity="0.00000" rx="3" ry="3" style="stroke:#038048;stroke-width:1;"/><text fill="#000000" font-family="sans-serif" font-size="14" lengthAdjust="spacing" textLength="57.4278" x="121.18" y="123.1697">opposite</text><ellipse cx="112.18" cy="138.3056" fill="#FFFFFF" fill-opacity="0.00000" rx="3" ry="3" style="stroke:#038048;stroke-width:1;"/><text fill="#000000" font-family="sans-serif" font-size="14" lengthAdjust="spacing" textLength="107.9256" x="121.18" y="142.2376">quarter_turn_cw</text><ellipse cx="112.18" cy="157.3735" fill="#FFFFFF" fill-opacity="0.00000" rx="3" ry="3" style="stroke:#038048;stroke-width:1;"/><text fill="#000000" font-family="sans-serif" font-size="14" lengthAdjust="spacing" textLength="114.6456" x="121.18" y="161.3055">quarter_turn_ccw</text><ellipse cx="112.18" cy="176.4415" fill="#FFFFFF" fill-opacity="0.00000" rx="3" ry="3" style="stroke:#038048;stroke-width:1;"/><text fill="#000000" font-family="sans-serif" font-size="14" lengthAdjust="spacing" textLength="74.0737" x="121.18" y="180.3734">negate_cos</text><ellipse cx="112.18" cy="195.5094" fill="#FFFFFF" fill-opacity="0.00000" rx="3" ry="3" style="stroke:#038048;stroke-width:1;"/><text fill="#000000" font-family="sans-serif" font-size="14" lengthAdjust="spacing" textLength="45.8498" x="121.18" y="199.4414">double</text><ellipse cx="112.18" cy="214.5773" fill="#FFFFFF" fill-opacity="0.00000" rx="3" ry="3" style="stroke:#038048;stroke-width:1;"/><text fill="#000000" font-family="sans-serif" font-size="14" lengthAdjust="spacing" textLength="24.9339" x="121.18" y="218.5093">half</text></g><!--class Degrees--><g id="elem_Degrees"><rect fill="#F1F1F1" height="48" id="Degrees" rx="2.5" ry="2.5" style="stroke:#181818;stroke-width:0.5;" width="87.0058" x="7" y="286.61"/><ellipse cx="22" cy="302.61" fill="#ADD1B2" rx="11" ry="11" style="stroke:#181818;stroke-width:1;"/><path d="M22.1094,298.1413 Q21.1875,298.1413 20.4531,298.4538 Q19.7344,298.7663 19.2344,299.36 Q18.7344,299.9381 18.4531,300.8131 Q18.1875,301.6881 18.1875,302.7819 Q18.1875,304.2194 18.625,305.2663 Q19.0781,306.3131 19.9219,306.86 Q20.7813,307.4069 22.0938,307.4069 Q22.875,307.4069 23.5625,307.2819 Q24.2656,307.1413 25.2656,306.8288 L25.2656,308.7038 Q24.4063,309.0319 23.6406,309.1569 Q22.8906,309.2819 21.875,309.2819 Q19.9531,309.2819 18.6406,308.485 Q17.3438,307.6725 16.6875,306.2038 Q16.0313,304.7194 16.0313,302.7506 Q16.0313,301.3288 16.4219,300.1569 Q16.8281,298.9694 17.6094,298.0944 Q18.3906,297.2194 19.5313,296.7506 Q20.6719,296.2663 22.1406,296.2663 Q23.0938,296.2663 23.9844,296.4694 Q24.8906,296.6569 25.8281,297.1256 L25,298.9069 Q24.2188,298.5319 23.5625,298.3444 Q22.9063,298.1413 22.1094,298.1413 Z " fill="#000000"/><text fill="#000000" font-family="sans-serif" font-size="14" lengthAdjust="spacing" textLength="55.0058" x="36" y="308.042">Degrees</text><line style="stroke:#181818;stroke-width:0.5;" x1="8" x2="93.0058" y1="318.61" y2="318.61"/><line style="stroke:#181818;stroke-width:0.5;" x1="8" x2="93.0058" y1="326.61" y2="326.61"/></g><!--class Radians--><g id="elem_Radians"><rect fill="#F1F1F1" height="48" id="Radians" rx="2.5" ry="2.5" style="stroke:#181818;stroke-width:0.5;" width="83.9958" x="129.51" y="286.61"/><ellipse cx="144.51" cy="302.61" fill="#ADD1B2" rx="11" ry="11" style="stroke:#181818;stroke-width:1;"/><path d="M144.6194,298.1413 Q143.6975,298.1413 142.9631,298.4538 Q142.2444,298.7663 141.7444,299.36 Q141.2444,299.9381 140.9631,300.8131 Q140.6975,301.6881 140.6975,302.7819 Q140.6975,304.2194 141.135,305.2663 Q141.5881,306.3131 142.4319,306.86 Q143.2913,307.4069 144.6038,307.4069 Q145.385,307.4069 146.0725,307.2819 Q146.7756,307.1413 147.7756,306.8288 L147.7756,308.7038 Q146.9163,309.0319 146.1506,309.1569 Q145.4006,309.2819 144.385,309.2819 Q142.4631,309.2819 141.1506,308.485 Q139.8538,307.6725 139.1975,306.2038 Q138.5413,304.7194 138.5413,302.7506 Q138.5413,301.3288 138.9319,300.1569 Q139.3381,298.9694 140.1194,298.0944 Q140.9006,297.2194 142.0413,296.7506 Q143.1819,296.2663 144.6506,296.2663 Q145.6038,296.2663 146.4944,296.4694 Q147.4006,296.6569 148.3381,297.1256 L147.51,298.9069 Q146.7288,298.5319 146.0725,298.3444 Q145.4163,298.1413 144.6194,298.1413 Z " fill="#000000"/><text fill="#000000" font-family="sans-serif" font-size="14" lengthAdjust="spacing" textLength="51.9958" x="158.51" y="308.042">Radians</text><line style="stroke:#181818;stroke-width:0.5;" x1="130.51" x2="212.5058" y1="318.61" y2="318.61"/><line style="stroke:#181818;stroke-width:0.5;" x1="130.51" x2="212.5058" y1="326.61" y2="326.61"/></g><!--link Angle to Degrees--><g id="link_Angle_Degrees"><path codeLine="21" d="M102.7,226.88 C88.54,249.31 75.01,270.76 65.27,286.2 " fill="#FFFFFF" fill-opacity="0.00000" id="Angle-Degrees" style="stroke:#181818;stroke-width:1;stroke-dasharray:7.0,7.0;"/></g><!--link Angle to Radians--><g id="link_Angle_Radians"><path codeLine="22" d="M171.5,226.88 C171.5,249.31 171.5,270.76 171.5,286.2 " fill="#FFFFFF" fill-opacity="0.00000" id="Angle-Radians" style="stroke:#181818;stroke-width:1;stroke-dasharray:7.0,7.0;"/></g><!--reverse link Angle to UnitNegRange--><g id="link_Angle_UnitNegRange"><path codeLine="23" d="M249.3177,223.6585 C269.1077,250.5785 281.77,267.8 295.28,286.17 " fill="#FFFFFF" fill-opacity="0.00000" id="Angle-backto-UnitNegRange" style="stroke:#181818;stroke-width:1;"/><polygon fill="#181818" points="242.21,213.99,242.541,221.1935,249.3177,223.6585,248.9867,216.455,242.21,213.99" style="stroke:#181818;stroke-width:1;"/><text fill="#000000" font-family="sans-serif" font-size="13" lengthAdjust="spacing" textLength="7.436" x="283.0267" y="274.7166">2</text></g><!--SRC=[TL0zJyCm4DtzAqvT2bIEK0HBjgeT4KFuMAEhSpYMNDluBg0AyTz94mdSWHkUxhtxqhlrBgPJTdOGk3BNKD_MTtg2UtXr2CzaXX1zj2TuaBw2hVVGddiPMcBA7zHNIgr1d7Y2RR0JxZmomzwXpNXKYaaWu94ueQ4dIfXHOeQcKGgcC7FtClarA-VGm2uKp4J-O_ettG0Uk60nfSXEg93UHyn2kPCnXyvy_bkvA0MoADILLpVGn_7WozK3-hUPVYzM5XDL1NkocOWlnHPxXw4KRxI6LRq2cRxVD2_1oIFP5eCbzGC0]--></g></svg>