<?xml version="1.0" encoding="UTF-8" standalone="no"?><svg xmlns="http://www.w3.org/2000/svg" xmlns:xlink="http://www.w3.org/1999/xlink" contentStyleType="text/css" height="309px" preserveAspectRatio="none" style="width:394px;height:309px;background:#FFFFFF;" version="1.1" viewBox="0 0 394 309" width="394px" zoomAndPan="magnify"><defs/><g><!--MD5=[9710e789efdd1d62600536e5f97d9475]
cluster trig--><g id="cluster_trig"><path d="M233.5,202 L258.5,202 A3.75,3.75 0 0 1 261,204.5 L268,225.6094 L384.5,225.6094 A2.5,2.5 0 0 1 387,228.1094 L387,299.5 A2.5,2.5 0 0 1 384.5,302 L233.5,302 A2.5,2.5 0 0 1 231,299.5 L231,204.5 A2.5,2.5 0 0 1 233.5,202 " fill="none" style="stroke:#000000;stroke-width:1.5;"/><line style="stroke:#000000;stroke-width:1.5;" x1="231" x2="268" y1="225.6094" y2="225.6094"/><text fill="#000000" font-family="sans-serif" font-size="14" font-weight="bold" lengthAdjust="spacing" textLength="24" x="235" y="218.5332">trig</text></g><!--MD5=[7efcc6422f2e61fc3b34312dbed09f98]
class trig::UnitNegRange--><g id="elem_trig::UnitNegRange"><rect fill="#F1F1F1" height="48" id="trig::UnitNegRange" rx="2.5" ry="2.5" style="stroke:#181818;stroke-width:0.5;" width="123" x="247.5" y="238"/><ellipse cx="262.5" cy="254" fill="#ADD1B2" rx="11" ry="11" style="stroke:#181818;stroke-width:1.0;"/><path d="M265.2656,249.875 Q265.4219,249.6563 265.6094,249.5469 Q265.7969,249.4375 266.0156,249.4375 Q266.3906,249.4375 266.625,249.6953 Q266.8594,249.9531 266.8594,250.5625 L266.8594,252.0156 Q266.8594,252.625 266.625,252.8906 Q266.3906,253.1563 266.0156,253.1563 Q265.6719,253.1563 265.4688,252.9531 Q265.2656,252.7656 265.1563,252.25 Q265.1094,251.8906 264.9219,251.7031 Q264.5938,251.3281 263.9844,251.1094 Q263.375,250.8906 262.75,250.8906 Q261.9844,250.8906 261.3516,251.2188 Q260.7188,251.5469 260.2266,252.2969 Q259.7344,253.0469 259.7344,254.0781 L259.7344,255.1719 Q259.7344,256.4063 260.625,257.2266 Q261.5156,258.0469 263.1094,258.0469 Q264.0469,258.0469 264.7031,257.7969 Q265.0938,257.6406 265.5156,257.2031 Q265.7813,256.9375 265.9297,256.8594 Q266.0781,256.7813 266.2813,256.7813 Q266.6094,256.7813 266.8672,257.0391 Q267.125,257.2969 267.125,257.6406 Q267.125,257.9844 266.7813,258.3906 Q266.2813,258.9688 265.4844,259.2969 Q264.4063,259.75 263.1094,259.75 Q261.5938,259.75 260.3906,259.125 Q259.4063,258.625 258.7188,257.5547 Q258.0313,256.4844 258.0313,255.2031 L258.0313,254.0469 Q258.0313,252.7188 258.6484,251.5703 Q259.2656,250.4219 260.3594,249.8047 Q261.4531,249.1875 262.6875,249.1875 Q263.4219,249.1875 264.0703,249.3516 Q264.7188,249.5156 265.2656,249.875 Z " fill="#000000"/><text fill="#000000" font-family="sans-serif" font-size="14" lengthAdjust="spacing" textLength="91" x="276.5" y="259.7285">UnitNegRange</text><line style="stroke:#181818;stroke-width:0.5;" x1="248.5" x2="369.5" y1="270" y2="270"/><line style="stroke:#181818;stroke-width:0.5;" x1="248.5" x2="369.5" y1="278" y2="278"/></g><!--MD5=[721900c9b1e6ee6a764f2567704251f9]
class Angle--><g id="elem_Angle"><rect codeLine="7" fill="#F1F1F1" height="171.2656" id="Angle" rx="2.5" ry="2.5" style="stroke:#181818;stroke-width:0.5;" width="100" x="120" y="7"/><ellipse cx="149.4" cy="23" fill="#ADD1B2" rx="11" ry="11" style="stroke:#181818;stroke-width:1.0;"/><path d="M152.1656,18.875 Q152.3219,18.6563 152.5094,18.5469 Q152.6969,18.4375 152.9156,18.4375 Q153.2906,18.4375 153.525,18.6953 Q153.7594,18.9531 153.7594,19.5625 L153.7594,21.0156 Q153.7594,21.625 153.525,21.8906 Q153.2906,22.1563 152.9156,22.1563 Q152.5719,22.1563 152.3688,21.9531 Q152.1656,21.7656 152.0563,21.25 Q152.0094,20.8906 151.8219,20.7031 Q151.4938,20.3281 150.8844,20.1094 Q150.275,19.8906 149.65,19.8906 Q148.8844,19.8906 148.2516,20.2188 Q147.6188,20.5469 147.1266,21.2969 Q146.6344,22.0469 146.6344,23.0781 L146.6344,24.1719 Q146.6344,25.4063 147.525,26.2266 Q148.4156,27.0469 150.0094,27.0469 Q150.9469,27.0469 151.6031,26.7969 Q151.9938,26.6406 152.4156,26.2031 Q152.6813,25.9375 152.8297,25.8594 Q152.9781,25.7813 153.1813,25.7813 Q153.5094,25.7813 153.7672,26.0391 Q154.025,26.2969 154.025,26.6406 Q154.025,26.9844 153.6813,27.3906 Q153.1813,27.9688 152.3844,28.2969 Q151.3063,28.75 150.0094,28.75 Q148.4938,28.75 147.2906,28.125 Q146.3063,27.625 145.6188,26.5547 Q144.9313,25.4844 144.9313,24.2031 L144.9313,23.0469 Q144.9313,21.7188 145.5484,20.5703 Q146.1656,19.4219 147.2594,18.8047 Q148.3531,18.1875 149.5875,18.1875 Q150.3219,18.1875 150.9703,18.3516 Q151.6188,18.5156 152.1656,18.875 Z " fill="#000000"/><text fill="#000000" font-family="sans-serif" font-size="14" lengthAdjust="spacing" textLength="36" x="166.6" y="28.7285">Angle</text><line style="stroke:#181818;stroke-width:0.5;" x1="121" x2="219" y1="39" y2="39"/><rect fill="none" height="6" style="stroke:#C82930;stroke-width:1.0;" width="6" x="128" y="50.3047"/><text fill="#000000" font-family="sans-serif" font-size="14" lengthAdjust="spacing" textLength="18" x="140" y="57.5332">sin</text><rect fill="none" height="6" style="stroke:#C82930;stroke-width:1.0;" width="6" x="128" y="67.9141"/><text fill="#000000" font-family="sans-serif" font-size="14" lengthAdjust="spacing" textLength="22" x="140" y="75.1426">cos</text><line style="stroke:#181818;stroke-width:1.0;" x1="121" x2="219" y1="82.2188" y2="82.2188"/><ellipse cx="131" cy="96.5234" fill="none" rx="3" ry="3" style="stroke:#038048;stroke-width:1.0;"/><text fill="#000000" font-family="sans-serif" font-size="14" lengthAdjust="spacing" textLength="23" x="140" y="100.752">abs</text><ellipse cx="131" cy="114.1328" fill="none" rx="3" ry="3" style="stroke:#038048;stroke-width:1.0;"/><text fill="#000000" font-family="sans-serif" font-size="14" lengthAdjust="spacing" textLength="54" x="140" y="118.3613">opposite</text><ellipse cx="131" cy="131.7422" fill="none" rx="3" ry="3" style="stroke:#038048;stroke-width:1.0;"/><text fill="#000000" font-family="sans-serif" font-size="14" lengthAdjust="spacing" textLength="74" x="140" y="135.9707">negate_cos</text><ellipse cx="131" cy="149.3516" fill="none" rx="3" ry="3" style="stroke:#038048;stroke-width:1.0;"/><text fill="#000000" font-family="sans-serif" font-size="14" lengthAdjust="spacing" textLength="43" x="140" y="153.5801">double</text><ellipse cx="131" cy="166.9609" fill="none" rx="3" ry="3" style="stroke:#038048;stroke-width:1.0;"/><text fill="#000000" font-family="sans-serif" font-size="14" lengthAdjust="spacing" textLength="23" x="140" y="171.1895">half</text></g><!--MD5=[1f320ca05e2172d4b2a944e0a4ad2f75]
class Degrees--><g id="elem_Degrees"><rect fill="#F1F1F1" height="48" id="Degrees" rx="2.5" ry="2.5" style="stroke:#181818;stroke-width:0.5;" width="86" x="7" y="238"/><ellipse cx="22" cy="254" fill="#ADD1B2" rx="11" ry="11" style="stroke:#181818;stroke-width:1.0;"/><path d="M24.7656,249.875 Q24.9219,249.6563 25.1094,249.5469 Q25.2969,249.4375 25.5156,249.4375 Q25.8906,249.4375 26.125,249.6953 Q26.3594,249.9531 26.3594,250.5625 L26.3594,252.0156 Q26.3594,252.625 26.125,252.8906 Q25.8906,253.1563 25.5156,253.1563 Q25.1719,253.1563 24.9688,252.9531 Q24.7656,252.7656 24.6563,252.25 Q24.6094,251.8906 24.4219,251.7031 Q24.0938,251.3281 23.4844,251.1094 Q22.875,250.8906 22.25,250.8906 Q21.4844,250.8906 20.8516,251.2188 Q20.2188,251.5469 19.7266,252.2969 Q19.2344,253.0469 19.2344,254.0781 L19.2344,255.1719 Q19.2344,256.4063 20.125,257.2266 Q21.0156,258.0469 22.6094,258.0469 Q23.5469,258.0469 24.2031,257.7969 Q24.5938,257.6406 25.0156,257.2031 Q25.2813,256.9375 25.4297,256.8594 Q25.5781,256.7813 25.7813,256.7813 Q26.1094,256.7813 26.3672,257.0391 Q26.625,257.2969 26.625,257.6406 Q26.625,257.9844 26.2813,258.3906 Q25.7813,258.9688 24.9844,259.2969 Q23.9063,259.75 22.6094,259.75 Q21.0938,259.75 19.8906,259.125 Q18.9063,258.625 18.2188,257.5547 Q17.5313,256.4844 17.5313,255.2031 L17.5313,254.0469 Q17.5313,252.7188 18.1484,251.5703 Q18.7656,250.4219 19.8594,249.8047 Q20.9531,249.1875 22.1875,249.1875 Q22.9219,249.1875 23.5703,249.3516 Q24.2188,249.5156 24.7656,249.875 Z " fill="#000000"/><text fill="#000000" font-family="sans-serif" font-size="14" lengthAdjust="spacing" textLength="54" x="36" y="259.7285">Degrees</text><line style="stroke:#181818;stroke-width:0.5;" x1="8" x2="92" y1="270" y2="270"/><line style="stroke:#181818;stroke-width:0.5;" x1="8" x2="92" y1="278" y2="278"/></g><!--MD5=[2178263f2a0ba8ffa4944547da092133]
class Radians--><g id="elem_Radians"><rect fill="#F1F1F1" height="48" id="Radians" rx="2.5" ry="2.5" style="stroke:#181818;stroke-width:0.5;" width="84" x="128" y="238"/><ellipse cx="143" cy="254" fill="#ADD1B2" rx="11" ry="11" style="stroke:#181818;stroke-width:1.0;"/><path d="M145.7656,249.875 Q145.9219,249.6563 146.1094,249.5469 Q146.2969,249.4375 146.5156,249.4375 Q146.8906,249.4375 147.125,249.6953 Q147.3594,249.9531 147.3594,250.5625 L147.3594,252.0156 Q147.3594,252.625 147.125,252.8906 Q146.8906,253.1563 146.5156,253.1563 Q146.1719,253.1563 145.9688,252.9531 Q145.7656,252.7656 145.6563,252.25 Q145.6094,251.8906 145.4219,251.7031 Q145.0938,251.3281 144.4844,251.1094 Q143.875,250.8906 143.25,250.8906 Q142.4844,250.8906 141.8516,251.2188 Q141.2188,251.5469 140.7266,252.2969 Q140.2344,253.0469 140.2344,254.0781 L140.2344,255.1719 Q140.2344,256.4063 141.125,257.2266 Q142.0156,258.0469 143.6094,258.0469 Q144.5469,258.0469 145.2031,257.7969 Q145.5938,257.6406 146.0156,257.2031 Q146.2813,256.9375 146.4297,256.8594 Q146.5781,256.7813 146.7813,256.7813 Q147.1094,256.7813 147.3672,257.0391 Q147.625,257.2969 147.625,257.6406 Q147.625,257.9844 147.2813,258.3906 Q146.7813,258.9688 145.9844,259.2969 Q144.9063,259.75 143.6094,259.75 Q142.0938,259.75 140.8906,259.125 Q139.9063,258.625 139.2188,257.5547 Q138.5313,256.4844 138.5313,255.2031 L138.5313,254.0469 Q138.5313,252.7188 139.1484,251.5703 Q139.7656,250.4219 140.8594,249.8047 Q141.9531,249.1875 143.1875,249.1875 Q143.9219,249.1875 144.5703,249.3516 Q145.2188,249.5156 145.7656,249.875 Z " fill="#000000"/><text fill="#000000" font-family="sans-serif" font-size="14" lengthAdjust="spacing" textLength="52" x="157" y="259.7285">Radians</text><line style="stroke:#181818;stroke-width:0.5;" x1="129" x2="211" y1="270" y2="270"/><line style="stroke:#181818;stroke-width:0.5;" x1="129" x2="211" y1="278" y2="278"/></g><!--MD5=[f136d9ddf30454c205dc6c95d96e0c3b]
link Angle to Degrees--><g id="link_Angle_Degrees"><path codeLine="18" d="M119.804,163.565 C100.7939,190.1 80.4337,218.5196 66.6382,237.7758 " fill="none" id="Angle-Degrees" style="stroke:#181818;stroke-width:1.0;stroke-dasharray:7.0,7.0;"/></g><!--MD5=[eecf4adbbbc2cff87a3ece3d65da62e7]
link Angle to Radians--><g id="link_Angle_Radians"><path codeLine="19" d="M170,178.231 C170,200.14 170,221.9592 170,237.6906 " fill="none" id="Angle-Radians" style="stroke:#181818;stroke-width:1.0;stroke-dasharray:7.0,7.0;"/></g><!--MD5=[9f5e50c9df032e4e564d9b298419eac7]
reverse link Angle to trig::UnitNegRange--><g id="link_Angle_trig::UnitNegRange"><path codeLine="20" d="M228.486,163.977 C250.391,190.374 273.795,218.5762 289.691,237.7319 " fill="none" id="Angle-backto-trig::UnitNegRange" style="stroke:#181818;stroke-width:1.0;"/><polygon fill="#181818" points="220.182,153.971,220.9357,161.1426,227.8455,163.2052,227.0918,156.0336,220.182,153.971" style="stroke:#181818;stroke-width:1.0;"/><text fill="#000000" font-family="sans-serif" font-size="13" lengthAdjust="spacing" textLength="7" x="276.8462" y="227.0034">2</text></g><!--MD5=[8c0ac8f84e824b981c86d6851abca275]
@startuml

'Copyright (c) 2024 Via Technology Ltd. All Rights Reserved.

' title Angle Class Diagram

set namespaceSeparator ::
    class Angle {
        - sin
        - cos
        - -
        + abs
        + opposite
        + negate_cos
        + double
        + half
    }

    Angle .. Degrees
    Angle .. Radians
    Angle *- - "2" trig::UnitNegRange
@enduml

@startuml



set namespaceSeparator ::
    class Angle {
        - sin
        - cos
        - -
        + abs
        + opposite
        + negate_cos
        + double
        + half
    }

    Angle .. Degrees
    Angle .. Radians
    Angle *- - "2" trig::UnitNegRange
@enduml

PlantUML version 1.2022.8(Sun Sep 25 10:00:33 BST 2022)
(GPL source distribution)
Java Runtime: Java(TM) SE Runtime Environment
JVM: Java HotSpot(TM) Client VM
Default Encoding: Cp1252
Language: en
Country: GB
--></g></svg>