<?xml version="1.0" encoding="UTF-8" standalone="no"?><svg xmlns="http://www.w3.org/2000/svg" xmlns:xlink="http://www.w3.org/1999/xlink" contentStyleType="text/css" height="221px" preserveAspectRatio="none" style="width:394px;height:221px;background:#FFFFFF;" version="1.1" viewBox="0 0 394 221" width="394px" zoomAndPan="magnify"><defs/><g><!--MD5=[9710e789efdd1d62600536e5f97d9475]
cluster trig--><g id="cluster_trig"><path d="M233.5,114 L258.5,114 A3.75,3.75 0 0 1 261,116.5 L268,137.6094 L384.5,137.6094 A2.5,2.5 0 0 1 387,140.1094 L387,211.5 A2.5,2.5 0 0 1 384.5,214 L233.5,214 A2.5,2.5 0 0 1 231,211.5 L231,116.5 A2.5,2.5 0 0 1 233.5,114 " fill="none" style="stroke:#000000;stroke-width:1.5;"/><line style="stroke:#000000;stroke-width:1.5;" x1="231" x2="268" y1="137.6094" y2="137.6094"/><text fill="#000000" font-family="sans-serif" font-size="14" font-weight="bold" lengthAdjust="spacing" textLength="24" x="235" y="130.5332">trig</text></g><!--MD5=[7efcc6422f2e61fc3b34312dbed09f98]
class trig::UnitNegRange--><g id="elem_trig::UnitNegRange"><rect fill="#F1F1F1" height="48" id="trig::UnitNegRange" rx="2.5" ry="2.5" style="stroke:#181818;stroke-width:0.5;" width="123" x="247.5" y="150"/><ellipse cx="262.5" cy="166" fill="#ADD1B2" rx="11" ry="11" style="stroke:#181818;stroke-width:1.0;"/><path d="M265.2656,161.875 Q265.4219,161.6563 265.6094,161.5469 Q265.7969,161.4375 266.0156,161.4375 Q266.3906,161.4375 266.625,161.6953 Q266.8594,161.9531 266.8594,162.5625 L266.8594,164.0156 Q266.8594,164.625 266.625,164.8906 Q266.3906,165.1563 266.0156,165.1563 Q265.6719,165.1563 265.4688,164.9531 Q265.2656,164.7656 265.1563,164.25 Q265.1094,163.8906 264.9219,163.7031 Q264.5938,163.3281 263.9844,163.1094 Q263.375,162.8906 262.75,162.8906 Q261.9844,162.8906 261.3516,163.2188 Q260.7188,163.5469 260.2266,164.2969 Q259.7344,165.0469 259.7344,166.0781 L259.7344,167.1719 Q259.7344,168.4063 260.625,169.2266 Q261.5156,170.0469 263.1094,170.0469 Q264.0469,170.0469 264.7031,169.7969 Q265.0938,169.6406 265.5156,169.2031 Q265.7813,168.9375 265.9297,168.8594 Q266.0781,168.7813 266.2813,168.7813 Q266.6094,168.7813 266.8672,169.0391 Q267.125,169.2969 267.125,169.6406 Q267.125,169.9844 266.7813,170.3906 Q266.2813,170.9688 265.4844,171.2969 Q264.4063,171.75 263.1094,171.75 Q261.5938,171.75 260.3906,171.125 Q259.4063,170.625 258.7188,169.5547 Q258.0313,168.4844 258.0313,167.2031 L258.0313,166.0469 Q258.0313,164.7188 258.6484,163.5703 Q259.2656,162.4219 260.3594,161.8047 Q261.4531,161.1875 262.6875,161.1875 Q263.4219,161.1875 264.0703,161.3516 Q264.7188,161.5156 265.2656,161.875 Z " fill="#000000"/><text fill="#000000" font-family="sans-serif" font-size="14" lengthAdjust="spacing" textLength="91" x="276.5" y="171.7285">UnitNegRange</text><line style="stroke:#181818;stroke-width:0.5;" x1="248.5" x2="369.5" y1="182" y2="182"/><line style="stroke:#181818;stroke-width:0.5;" x1="248.5" x2="369.5" y1="190" y2="190"/></g><!--MD5=[721900c9b1e6ee6a764f2567704251f9]
class Angle--><g id="elem_Angle"><rect codeLine="7" fill="#F1F1F1" height="83.2188" id="Angle" rx="2.5" ry="2.5" style="stroke:#181818;stroke-width:0.5;" width="68" x="136" y="7"/><ellipse cx="151" cy="23" fill="#ADD1B2" rx="11" ry="11" style="stroke:#181818;stroke-width:1.0;"/><path d="M153.7656,18.875 Q153.9219,18.6563 154.1094,18.5469 Q154.2969,18.4375 154.5156,18.4375 Q154.8906,18.4375 155.125,18.6953 Q155.3594,18.9531 155.3594,19.5625 L155.3594,21.0156 Q155.3594,21.625 155.125,21.8906 Q154.8906,22.1563 154.5156,22.1563 Q154.1719,22.1563 153.9688,21.9531 Q153.7656,21.7656 153.6563,21.25 Q153.6094,20.8906 153.4219,20.7031 Q153.0938,20.3281 152.4844,20.1094 Q151.875,19.8906 151.25,19.8906 Q150.4844,19.8906 149.8516,20.2188 Q149.2188,20.5469 148.7266,21.2969 Q148.2344,22.0469 148.2344,23.0781 L148.2344,24.1719 Q148.2344,25.4063 149.125,26.2266 Q150.0156,27.0469 151.6094,27.0469 Q152.5469,27.0469 153.2031,26.7969 Q153.5938,26.6406 154.0156,26.2031 Q154.2813,25.9375 154.4297,25.8594 Q154.5781,25.7813 154.7813,25.7813 Q155.1094,25.7813 155.3672,26.0391 Q155.625,26.2969 155.625,26.6406 Q155.625,26.9844 155.2813,27.3906 Q154.7813,27.9688 153.9844,28.2969 Q152.9063,28.75 151.6094,28.75 Q150.0938,28.75 148.8906,28.125 Q147.9063,27.625 147.2188,26.5547 Q146.5313,25.4844 146.5313,24.2031 L146.5313,23.0469 Q146.5313,21.7188 147.1484,20.5703 Q147.7656,19.4219 148.8594,18.8047 Q149.9531,18.1875 151.1875,18.1875 Q151.9219,18.1875 152.5703,18.3516 Q153.2188,18.5156 153.7656,18.875 Z " fill="#000000"/><text fill="#000000" font-family="sans-serif" font-size="14" lengthAdjust="spacing" textLength="36" x="165" y="28.7285">Angle</text><line style="stroke:#181818;stroke-width:0.5;" x1="137" x2="203" y1="39" y2="39"/><rect fill="none" height="6" style="stroke:#C82930;stroke-width:1.0;" width="6" x="144" y="50.3047"/><text fill="#000000" font-family="sans-serif" font-size="14" lengthAdjust="spacing" textLength="18" x="156" y="57.5332">sin</text><rect fill="none" height="6" style="stroke:#C82930;stroke-width:1.0;" width="6" x="144" y="67.9141"/><text fill="#000000" font-family="sans-serif" font-size="14" lengthAdjust="spacing" textLength="22" x="156" y="75.1426">cos</text><line style="stroke:#181818;stroke-width:0.5;" x1="137" x2="203" y1="82.2188" y2="82.2188"/></g><!--MD5=[1f320ca05e2172d4b2a944e0a4ad2f75]
class Degrees--><g id="elem_Degrees"><rect fill="#F1F1F1" height="48" id="Degrees" rx="2.5" ry="2.5" style="stroke:#181818;stroke-width:0.5;" width="86" x="7" y="150"/><ellipse cx="22" cy="166" fill="#ADD1B2" rx="11" ry="11" style="stroke:#181818;stroke-width:1.0;"/><path d="M24.7656,161.875 Q24.9219,161.6563 25.1094,161.5469 Q25.2969,161.4375 25.5156,161.4375 Q25.8906,161.4375 26.125,161.6953 Q26.3594,161.9531 26.3594,162.5625 L26.3594,164.0156 Q26.3594,164.625 26.125,164.8906 Q25.8906,165.1563 25.5156,165.1563 Q25.1719,165.1563 24.9688,164.9531 Q24.7656,164.7656 24.6563,164.25 Q24.6094,163.8906 24.4219,163.7031 Q24.0938,163.3281 23.4844,163.1094 Q22.875,162.8906 22.25,162.8906 Q21.4844,162.8906 20.8516,163.2188 Q20.2188,163.5469 19.7266,164.2969 Q19.2344,165.0469 19.2344,166.0781 L19.2344,167.1719 Q19.2344,168.4063 20.125,169.2266 Q21.0156,170.0469 22.6094,170.0469 Q23.5469,170.0469 24.2031,169.7969 Q24.5938,169.6406 25.0156,169.2031 Q25.2813,168.9375 25.4297,168.8594 Q25.5781,168.7813 25.7813,168.7813 Q26.1094,168.7813 26.3672,169.0391 Q26.625,169.2969 26.625,169.6406 Q26.625,169.9844 26.2813,170.3906 Q25.7813,170.9688 24.9844,171.2969 Q23.9063,171.75 22.6094,171.75 Q21.0938,171.75 19.8906,171.125 Q18.9063,170.625 18.2188,169.5547 Q17.5313,168.4844 17.5313,167.2031 L17.5313,166.0469 Q17.5313,164.7188 18.1484,163.5703 Q18.7656,162.4219 19.8594,161.8047 Q20.9531,161.1875 22.1875,161.1875 Q22.9219,161.1875 23.5703,161.3516 Q24.2188,161.5156 24.7656,161.875 Z " fill="#000000"/><text fill="#000000" font-family="sans-serif" font-size="14" lengthAdjust="spacing" textLength="54" x="36" y="171.7285">Degrees</text><line style="stroke:#181818;stroke-width:0.5;" x1="8" x2="92" y1="182" y2="182"/><line style="stroke:#181818;stroke-width:0.5;" x1="8" x2="92" y1="190" y2="190"/></g><!--MD5=[2178263f2a0ba8ffa4944547da092133]
class Radians--><g id="elem_Radians"><rect fill="#F1F1F1" height="48" id="Radians" rx="2.5" ry="2.5" style="stroke:#181818;stroke-width:0.5;" width="84" x="128" y="150"/><ellipse cx="143" cy="166" fill="#ADD1B2" rx="11" ry="11" style="stroke:#181818;stroke-width:1.0;"/><path d="M145.7656,161.875 Q145.9219,161.6563 146.1094,161.5469 Q146.2969,161.4375 146.5156,161.4375 Q146.8906,161.4375 147.125,161.6953 Q147.3594,161.9531 147.3594,162.5625 L147.3594,164.0156 Q147.3594,164.625 147.125,164.8906 Q146.8906,165.1563 146.5156,165.1563 Q146.1719,165.1563 145.9688,164.9531 Q145.7656,164.7656 145.6563,164.25 Q145.6094,163.8906 145.4219,163.7031 Q145.0938,163.3281 144.4844,163.1094 Q143.875,162.8906 143.25,162.8906 Q142.4844,162.8906 141.8516,163.2188 Q141.2188,163.5469 140.7266,164.2969 Q140.2344,165.0469 140.2344,166.0781 L140.2344,167.1719 Q140.2344,168.4063 141.125,169.2266 Q142.0156,170.0469 143.6094,170.0469 Q144.5469,170.0469 145.2031,169.7969 Q145.5938,169.6406 146.0156,169.2031 Q146.2813,168.9375 146.4297,168.8594 Q146.5781,168.7813 146.7813,168.7813 Q147.1094,168.7813 147.3672,169.0391 Q147.625,169.2969 147.625,169.6406 Q147.625,169.9844 147.2813,170.3906 Q146.7813,170.9688 145.9844,171.2969 Q144.9063,171.75 143.6094,171.75 Q142.0938,171.75 140.8906,171.125 Q139.9063,170.625 139.2188,169.5547 Q138.5313,168.4844 138.5313,167.2031 L138.5313,166.0469 Q138.5313,164.7188 139.1484,163.5703 Q139.7656,162.4219 140.8594,161.8047 Q141.9531,161.1875 143.1875,161.1875 Q143.9219,161.1875 144.5703,161.3516 Q145.2188,161.5156 145.7656,161.875 Z " fill="#000000"/><text fill="#000000" font-family="sans-serif" font-size="14" lengthAdjust="spacing" textLength="52" x="157" y="171.7285">Radians</text><line style="stroke:#181818;stroke-width:0.5;" x1="129" x2="211" y1="182" y2="182"/><line style="stroke:#181818;stroke-width:0.5;" x1="129" x2="211" y1="190" y2="190"/></g><!--MD5=[f136d9ddf30454c205dc6c95d96e0c3b]
link Angle to Degrees--><g id="link_Angle_Degrees"><path codeLine="12" d="M135.878,80.682 C127.292,88.785 118.192,97.601 110,106 C96.1545,120.196 81.2797,136.7967 69.8045,149.9218 " fill="none" id="Angle-Degrees" style="stroke:#181818;stroke-width:1.0;stroke-dasharray:7.0,7.0;"/></g><!--MD5=[eecf4adbbbc2cff87a3ece3d65da62e7]
link Angle to Radians--><g id="link_Angle_Radians"><path codeLine="13" d="M170,90.281 C170,110.094 170,133.1754 170,149.9143 " fill="none" id="Angle-Radians" style="stroke:#181818;stroke-width:1.0;stroke-dasharray:7.0,7.0;"/></g><!--MD5=[9f5e50c9df032e4e564d9b298419eac7]
reverse link Angle to trig::UnitNegRange--><g id="link_Angle_trig::UnitNegRange"><path codeLine="14" d="M213.745,88.367 C236.405,108.5 263.32,132.4134 282.749,149.6765 " fill="none" id="Angle-backto-trig::UnitNegRange" style="stroke:#181818;stroke-width:1.0;"/><polygon fill="#181818" points="204.003,79.711,205.8307,86.6866,212.9727,87.6825,211.145,80.7068,204.003,79.711" style="stroke:#181818;stroke-width:1.0;"/><text fill="#000000" font-family="sans-serif" font-size="13" lengthAdjust="spacing" textLength="7" x="268.4972" y="139.3356">2</text></g><!--MD5=[a3e3d0edcafc6a65f285ce51887496ae]
@startuml

'Copyright (c) 2024 Via Technology Ltd. All Rights Reserved.

' title Angle Class Diagram

set namespaceSeparator ::
    class Angle {
        - sin
        - cos
    }

    Angle .. Degrees
    Angle .. Radians
    Angle *- - "2" trig::UnitNegRange
@enduml

@startuml



set namespaceSeparator ::
    class Angle {
        - sin
        - cos
    }

    Angle .. Degrees
    Angle .. Radians
    Angle *- - "2" trig::UnitNegRange
@enduml

PlantUML version 1.2022.8(Sun Sep 25 10:00:33 BST 2022)
(GPL source distribution)
Java Runtime: Java(TM) SE Runtime Environment
JVM: Java HotSpot(TM) Client VM
Default Encoding: Cp1252
Language: en
Country: GB
--></g></svg>